<svg xmlns="http://www.w3.org/2000/svg" width="640" height="424" viewBox="0 0 640 424" role="img" aria-labelledby="title desc">
<title id="title">ZMS Labs: what I've been building with AI, and how it's actually going</title>
<desc id="desc">The ZMS Labs wordmark and the line "What I've been building with AI, and how it's actually going." A compact version of the masthead for narrow screens.</desc>
<rect width="640" height="424" fill="#152c35"/>
<path d="M25.70953145623207 0.0V64.63599191606045L351.59042079001665 555.3527498915792H49.19360239803791V686.9341730251908H592.2668398991227V621.8193292319775L266.1697041243315 131.58142313361168H600.1930794715881V0.0ZM702.2084893882275 0.0V686.9341730251908H941.2727193906903L1025.5729224830866 362.24908559024334Q1030.2382989153266 345.5808027237654 1036.3753067441285 319.13237519562244Q1042.5123145729303 292.6839476674795 1048.78488092497 265.30827851593494Q1055.0574472770095 237.93260936439037 1059.4052233621478 215.98772858083248H1067.3411386832595Q1070.4280516281724 233.32629059255123 1075.5532940924168 258.2683687880635Q1080.6785365566611 283.2104469835758 1086.7445904575288 310.7183521538973Q1092.8106443583965 338.22625732421875 1098.736883930862 362.54373336583376L1182.8849252611399 686.9341730251908H1416.7204587683082V0.0H1258.1027331277728V310.6319785937667Q1258.1027331277728 351.65089523792267 1258.956280387938 393.15181366726756Q1259.8098276481032 434.65273209661245 1260.9568624570966 467.4072554036975Q1262.10389726609 500.1617787107825 1262.10389726609 513.7129782661796H1254.2440628260374Q1252.0152420252562 500.67022816836834 1245.77862258628 474.3840620443225Q1239.542003147304 448.09789592027664 1232.6961002610624 419.4838173016906Q1225.8501973748207 390.8697386831045 1219.8919154629111 369.77690421044827L1121.8460548073053 0.0H988.1573640629649L889.7745593860745 369.29805233329535Q884.9244006946683 387.82673997431993 878.5902631729841 413.6990100480616Q872.2561256513 439.5712801218033 866.4654446020722 466.6066061742604Q860.6747635528445 493.6419322267175 855.9773447811604 513.376034244895H848.2256335616112Q849.3017144426703 488.82393235713243 850.2316316626966 453.48010958731174Q851.1615488827229 418.13628681749105 851.9390152618289 380.6775337308645Q852.716481640935 343.218780644238 852.716481640935 310.6319785937667V0.0ZM1817.2270650938153 -12.0Q1758.0446676760912 -12.0 1705.6167840659618 -0.8186023980379105Q1653.1889004558325 10.362795203924179 1613.273298215121 35.919177267700434Q1573.3576959744096 61.47555933147669 1550.5539245605469 103.29554888233542Q1527.7501531466842 145.11553843319416 1527.7501531466842 206.13185919076204Q1527.7501531466842 210.3716363608837 1527.9895790852606 215.5352744087577Q1528.229005023837 220.69891245663166 1528.6420299261808 224.22006057947874H1687.1408002823591Q1686.8038562610745 220.99356023222208 1686.564430322498 216.2215098850429Q1686.3250043839216 211.44945953786373 1686.3250043839216 207.6021994575858Q1686.3250043839216 175.38873514533043 1701.3857965171337 155.21466455608606Q1716.4465886503458 135.0405939668417 1744.7781321778893 125.77815721556544Q1773.109675705433 116.51572046428919 1811.1438853517175 116.51572046428919Q1833.2518632486463 116.51572046428919 1851.743275064975 119.13019301742315Q1870.2346868813038 121.74466557055712 1884.69080260396 127.34772399067879Q1899.1469183266163 132.95078241080046 1909.324056211859 141.36334954947233Q1919.5011940971017 149.7759166881442 1924.5569940917194 161.20363384857774Q1929.612794086337 172.63135100901127 1929.612794086337 187.14971700310707Q1929.612794086337 211.91134475916624 1913.3152476996183 227.81336891278625Q1897.0177013128996 243.71539306640625 1869.3316667154431 254.8564919270575Q1841.6456321179867 265.99759078770876 1806.9953175075352 275.2962674424052Q1772.3450028970838 284.5949440971017 1735.3957847058773 295.1435896754265Q1698.4465665146708 305.6922352537513 1663.7962519042194 320.9697016328573Q1629.145937293768 336.24716801196337 1601.4599026963115 358.77460331469774Q1573.773868098855 381.3020386174321 1557.4763217121363 415.03743567690253Q1541.1787753254175 448.77283273637295 1541.1787753254175 496.2310524955392Q1541.1787753254175 549.6198442056775 1562.3340626247227 588.1680763997138Q1583.489349924028 626.71630859375 1621.1969904080033 651.2108304090798Q1658.9046308919787 675.7053522244096 1708.0227788574994 687.3578030653298Q1757.14092682302 699.01025390625 1813.0666481554508 699.01025390625Q1867.8463988825679 699.01025390625 1915.7952036894858 687.4496160373092Q1963.7440084964037 675.8889781683683 2000.2623179256916 651.3440723903477Q2036.7806273549795 626.7991666123271 2057.508028808981 588.6570318304002Q2078.235430262983 550.5148970484734 2078.5723742842674 497.3519032225013V483.0854192599654H1922.0736039280891V491.86465621739626Q1922.0736039280891 516.3534246310592 1909.8442776314914 534.4130226671696Q1897.6149513348937 552.47262070328 1873.9584560766816 562.7552722766995Q1850.3019608184695 573.0379238501191 1815.5756757706404 573.0379238501191Q1780.9957474395633 573.0379238501191 1756.5786781199276 565.7006285972893Q1732.161608800292 558.3633333444595 1719.5264159291983 544.3314596898854Q1706.8912230581045 530.2995860353112 1706.8912230581045 510.60714554041624Q1706.8912230581045 487.5006403103471 1723.1887694448233 472.06721412763Q1739.486315831542 456.6337879449129 1767.210390869528 445.933500520885Q1794.934465907514 435.23321309685707 1829.5847805179656 426.17396238073707Q1864.235095128417 417.11471166461706 1901.1462728790939 406.71764577925205Q1938.0574506297708 396.32057989388704 1972.7077652402222 381.6575239151716Q2007.3580798506737 366.9944679364562 2035.0821548886597 344.6406315974891Q2062.8062299266458 322.28679525852203 2079.1037763133645 289.65520346164703Q2095.4013227000833 257.02361166477203 2095.4013227000833 210.79421270638704Q2095.4013227000833 131.57519195973873 2059.600068707019 82.3793467991054Q2023.798814713955 33.18350163847208 1961.0201281905174 10.59175081923604Q1898.24144166708 -12.0 1817.2270650938153 -12.0Z" transform="translate(42 147) scale(0.139 -0.139)" fill="#f5f3ed"/>
<path d="M71.1614578217268 0.0V686.3815876767039H207.99406157433987V117.51773650944233H527.231849655509V0.0ZM550.5223793014884 0.0 795.2763952612877 686.3815876767039H967.2314617931843L1212.8767741397023 0.0H1065.8719168156385L1017.2821745350957 142.88796340674162H739.3766834959388L690.9711453169584 0.0ZM776.3150990232825 255.66070968657732H979.7253466844559L919.1476522833109 439.6982305943966Q915.7002645879984 449.19884506613016 910.8993307501078 464.08304115757346Q906.0983969122171 478.96723724901676 900.8418030552566 496.6906749792397Q895.5852091982961 514.4141127094626 890.4006937406957 532.4567684270442Q885.2161782830954 550.4994241446257 880.857470549643 564.9182028323412H875.3471556082368Q870.2613319382071 546.1006691083312 862.9618262462318 521.7302117235959Q855.6623205542564 497.3597543388605 848.6820328496397 475.22182892262936Q841.7017451450229 453.0839035063982 837.0569738745689 439.6982305943966ZM1288.1614578217268 0.0V686.3815876767039H1638.8645895272493Q1694.3994282409549 686.3815876767039 1737.1382955051959 665.6235656738281Q1779.8771627694368 644.8655436709523 1804.0127911269665 607.1418498232961Q1828.1484194844961 569.4181559756398 1828.1484194844961 518.4267413318157Q1828.1484194844961 477.71444534510374 1813.5102379508317 445.56027672067285Q1798.8720564171672 413.40610809624195 1774.1265994161367 392.0900577567518Q1749.3811424151063 370.7740074172616 1718.1866151317954 359.7271159365773V355.7271159365773Q1754.5556460469961 347.5028645321727 1783.5081953331828 326.01573264971375Q1812.4607446193695 304.52860076725483 1829.0168359279633 270.38270446658134Q1845.572927236557 236.23680816590786 1845.572927236557 189.12065079063177Q1845.572927236557 124.68542145192623 1817.4201867580414 82.72404228523374Q1789.2674462795258 40.76266311854124 1741.11618918553 20.38133155927062Q1692.9649320915341 0.0 1631.6040847748518 0.0ZM1424.5856060683727 114.52049209922552H1617.4854653924704Q1657.7221020460129 114.52049209922552 1681.653972774744 136.72436973825097Q1705.5858435034752 158.92824737727642 1705.5858435034752 205.84571136534214Q1705.5858435034752 232.76092529296875 1695.5975865907967 253.00112503021955Q1685.6093296781182 273.24132476747036 1665.0118503533304 284.33424873277545Q1644.4143710285425 295.42717269808054 1612.161079250276 295.42717269808054H1424.5856060683727ZM1424.5856060683727 405.71586563438177H1603.0929318219423Q1631.3268061801791 405.71586563438177 1650.2615332007408 416.66376388818026Q1669.1962602213025 427.61166214197874 1678.8930375650525 446.7248658761382Q1688.5898149088025 465.8380696102977 1688.5898149088025 489.9341059848666Q1688.5898149088025 531.0500851422548 1666.6685218028724 551.9447566196322Q1644.7472286969423 572.8394280970097 1608.346923828125 572.8394280970097H1424.5856060683727ZM2201.3323390111327 -12.0Q2145.7938101142645 -12.0 2095.9206353724003 -0.3220742791891098Q2046.047460630536 11.35585144162178 2007.9698036946356 37.132468950003386Q1969.8921467587352 62.90908645838499 1948.0974426269531 103.15540580824018Q1926.302738495171 143.40172515809536 1926.302738495171 200.46985610574484Q1926.302738495171 205.8708612024784 1926.6662964634597 211.51501632481813Q1927.0298544317484 217.15917144715786 1927.1385580450296 220.43205551058054H2062.7971835285425Q2062.7085035666823 217.70208328217268 2062.3449455983937 212.46153343096375Q2061.981387630105 207.22098357975483 2061.981387630105 203.1254594400525Q2061.981387630105 169.38240173459053 2078.4516717493534 146.75774978846312Q2094.921955868602 124.1330978423357 2126.3928157016635 112.8244979120791Q2157.863675534725 101.51589798182249 2201.1274043247104 101.51589798182249Q2228.9534425362945 101.51589798182249 2250.844452288002 105.083380587399Q2272.735462039709 108.65086319297552 2289.0175054967403 115.71947082877159Q2305.2995489537716 122.78807846456766 2316.0733118467033 132.8744126930833Q2326.847074739635 142.9607469215989 2331.8908571638167 155.95411018654704Q2336.9346395879984 168.94747345149517 2336.9346395879984 184.63505432009697Q2336.9346395879984 212.38383773714304 2320.332771912217 230.6363463588059Q2303.730904236436 248.88885498046875 2275.5323304757476 261.46747444197536Q2247.3337567150593 274.04609390348196 2211.9506674967706 284.297780610621Q2176.567578278482 294.54946731776 2139.1058209240437 305.49853760004044Q2101.6440635696054 316.4476078823209 2066.2609743513167 331.8211776763201Q2030.877885133028 347.19474747031927 2002.6793113723397 369.2657008394599Q1974.4807376116514 391.3366542086005 1957.8788699358702 424.491437304765Q1941.277002260089 457.64622040092945 1941.277002260089 504.3596479818225Q1941.277002260089 554.3208131417632 1961.2029868327081 591.1272034458816Q1981.1289714053273 627.93359375 2017.122798614204 651.6953409574926Q2053.1166258230805 675.4570881649852 2100.6450925432146 686.9293497465551Q2148.1735592633486 698.401611328125 2203.378523558378 698.401611328125Q2256.4204258695245 698.401611328125 2302.7395032458007 687.0892375186086Q2349.058580622077 675.7768637090921 2384.1673980653286 651.6043540202081Q2419.27621550858 627.4318443313241 2439.1186817102134 589.9664269275963Q2458.9611479118466 552.5010095238686 2459.049827873707 500.1949223354459V486.3768962100148H2325.391202390194V496.86994644254446Q2325.391202390194 524.8183634951711 2310.7713454402983 544.375532835722Q2296.1514884904027 563.9327021762729 2268.955252222717 574.7439039573073Q2241.759015955031 585.5551057383418 2203.7092318683863 585.5551057383418Q2164.844770349562 585.5551057383418 2137.012092050165 577.4289786480367Q2109.1794137507677 569.3028515577316 2094.4139718562365 553.2488498650491Q2079.648529961705 537.1948481723666 2079.648529961705 513.514208830893Q2079.648529961705 488.4696614071727 2096.2503976374865 471.54265739396214Q2112.8522653132677 454.6156533807516 2141.0608508996665 442.7541380301118Q2169.2694364860654 430.89262267947197 2204.652525704354 421.0044939406216Q2240.0356149226427 411.11636520177126 2277.4873604513705 399.97450713813305Q2314.9391059800982 388.83264907449484 2350.322195198387 373.921329036355Q2385.7052844166756 359.0100089982152 2413.9138700030744 336.68420127406716Q2442.1224555894732 314.3583935499191 2458.7243232652545 281.7268017530441Q2475.3261909410357 249.09520995616913 2475.3261909410357 203.30628188699484Q2475.3261909410357 126.12943084537983 2440.1055509112775 78.61937034502625Q2404.8849108815193 31.10930984467268 2343.0191882252693 9.55465492233634Q2281.1534655690193 -12.0 2201.3323390111327 -12.0Z" transform="translate(44 252) scale(0.1 -0.1)" fill="#f5f3ed"/>
<rect x="313.5" y="233" width="18" height="18" rx="0" fill="#ffac70"/>
<path d="M196.72967529296875 0.0 10.24322509765625 686.0H144.35162353515625L256.51910400390625 242.71368408203125Q259.5677490234375 232.51910400390625 262.7380065917969 214.72723388671875Q265.90826416015625 196.93536376953125 269.10284423828125 177.61917114257812Q272.29742431640625 158.302978515625 274.443359375 143.05975341796875H279.637939453125Q281.7352294921875 155.2056884765625 283.3568420410156 169.42459106445312Q284.97845458984375 183.64349365234375 287.5514221191406 197.86239624023438Q290.1243896484375 212.081298828125 292.2216796875 223.82452392578125Q294.3189697265625 235.5677490234375 295.416259765625 242.71368408203125L399.4864501953125 686.0H561.8651733398438L665.9840087890625 242.71368408203125Q669.0326538085938 232.51910400390625 672.1785888671875 214.72723388671875Q675.3245239257812 196.93536376953125 678.4947814941406 177.61917114257812Q681.6650390625 158.302978515625 683.7623291015625 143.05975341796875H688.9569091796875Q691.05419921875 154.25433349609375 693.6514892578125 167.99755859375Q696.248779296875 181.74078369140625 698.8703918457031 195.4840087890625Q701.4920043945312 209.22723388671875 704.5406494140625 221.44613647460938Q707.5892944335938 233.6650390625 709.637939453125 242.71368408203125L821.8540649414062 686.0H940.5462036132812L753.1083984375 0.0H607.7567749023438L495.97845458984375 451.6539306640625Q492.9298095703125 465.751220703125 489.3568420410156 484.49444580078125Q485.78387451171875 503.2376708984375 483.137939453125 522.0781860351562Q480.49200439453125 540.918701171875 478.39471435546875 555.2105712890625H474.20013427734375Q473.05419921875 540.0159912109375 470.40826416015625 520.22412109375Q467.7623291015625 500.4322509765625 464.61639404296875 482.140380859375Q461.470458984375 463.8485107421875 458.42181396484375 451.6539306640625L347.7894287109375 0.0ZM1016.38916015625 0.0V723.0H1134.7894287109375V465.416259765625H1141.7894287109375Q1159.1299438476562 487.0 1182.3488464355469 503.0972900390625Q1205.5677490234375 519.194580078125 1235.1650390625 528.5972900390625Q1264.7623291015625 538.0 1300.7623291015625 538.0Q1350.7623291015625 538.0 1389.1893615722656 520.1216125488281Q1427.6163940429688 502.24322509765625 1449.5434265136719 462.43780517578125Q1471.470458984375 422.63238525390625 1471.470458984375 355.8756103515625V0.0H1352.1188354492188V334.94580078125Q1352.1188354492188 363.4322509765625 1345.4485778808594 382.1997985839844Q1338.7783203125 400.96734619140625 1326.0350952148438 412.5403137207031Q1313.2918701171875 424.11328125 1295.0243225097656 429.11328125Q1276.7567749023438 434.11328125 1254.5135498046875 434.11328125Q1221.027099609375 434.11328125 1193.8703918457031 417.9430236816406Q1166.7136840820312 401.77276611328125 1150.7515563964844 373.18902587890625Q1134.7894287109375 344.60528564453125 1134.7894287109375 306.34051513671875V0.0ZM1733.0972900390625 -12.0Q1710.416259765625 -12.0 1681.8189697265625 -6.35406494140625Q1653.2216796875 -0.7081298828125 1626.916259765625 14.413482666015625Q1600.61083984375 29.53509521484375 1583.8297424316406 58.913482666015625Q1567.0486450195312 88.2918701171875 1567.0486450195312 135.75677490234375Q1567.0486450195312 189.805419921875 1591.2432250976562 225.23245239257812Q1615.4378051757812 260.65948486328125 1659.2539978027344 281.06219482421875Q1703.0701904296875 301.46490478515625 1763.9350280761719 309.86761474609375Q1824.7998657226562 318.27032470703125 1897.140380859375 318.27032470703125V363.02154541015625Q1897.140380859375 386.6539306640625 1889.8241882324219 404.99444580078125Q1882.5079956054688 423.3349609375 1863.2783203125 433.9565734863281Q1844.0486450195312 444.57818603515625 1805.9784545898438 444.57818603515625Q1768.05419921875 444.57818603515625 1746.4947814941406 435.3106384277344Q1724.9353637695312 426.0430908203125 1716.6678161621094 412.4836730957031Q1708.4002685546875 398.92425537109375 1708.4002685546875 384.14593505859375V370.0H1593.9027099609375Q1592.9027099609375 375.0 1592.9027099609375 380.0Q1592.9027099609375 385.0 1592.9027099609375 392.0Q1592.9027099609375 437.34051513671875 1619.8540649414062 470.2918701171875Q1646.805419921875 503.24322509765625 1694.7810974121094 520.6216125488281Q1742.7567749023438 538.0 1805.7081298828125 538.0Q1877.0757446289062 538.0 1923.33251953125 518.1216125488281Q1969.5892944335938 498.24322509765625 1992.5649719238281 461.4621276855469Q2015.5406494140625 424.6810302734375 2015.5406494140625 372.02154541015625V120.12994384765625Q2015.5406494140625 101.12994384765625 2026.2974243164062 93.1785888671875Q2037.05419921875 85.22723388671875 2050.05419921875 85.22723388671875H2082.7838745117188V3.95135498046875Q2072.3947143554688 -0.24322509765625 2053.5892944335938 -5.621612548828125Q2034.7838745117188 -11.0 2007.5135498046875 -11.0Q1981.4649047851562 -11.0 1961.3540649414062 -2.305419921875Q1941.2432250976562 6.38916015625 1927.7539978027344 22.656707763671875Q1914.2647705078125 38.92425537109375 1908.556640625 61.0701904296875H1902.5079956054688Q1885.362060546875 39.63238525390625 1861.4485778808594 22.913482666015625Q1837.5350952148438 6.194580078125 1805.7675476074219 -2.9027099609375Q1774 -12 1733.0972900390625 -12.0ZM1768.4920043945312 85.22723388671875Q1798.6865844726562 85.22723388671875 1822.7460021972656 94.34884643554688Q1846.805419921875 103.470458984375 1862.9864501953125 119.71368408203125Q1879.16748046875 135.9569091796875 1888.1539306640625 159.27310180664062Q1897.140380859375 182.58929443359375 1897.140380859375 210.027099609375V236.16748046875Q1839.416259765625 236.16748046875 1791.7731018066406 228.94857788085938Q1744.1299438476562 221.72967529296875 1716.3380737304688 202.2918701171875Q1688.5462036132812 182.85406494140625 1688.5462036132812 147.1243896484375Q1688.5462036132812 128.248779296875 1697.4110412597656 114.33529663085938Q1706.27587890625 100.42181396484375 1724.2380065917969 92.82452392578125Q1742.2001342773438 85.22723388671875 1768.4920043945312 85.22723388671875ZM2290.7352294921875 -11.95135498046875Q2242.61083984375 -11.95135498046875 2215.0972900390625 7.086517333984375Q2187.583740234375 26.1243896484375 2176.2783203125 56.08929443359375Q2164.972900390625 86.05419921875 2164.972900390625 117.7623291015625V428.77276611328125H2101.4378051757812V526.0H2167.8269653320312L2189.2432250976562 672.9513549804688H2283.3731689453125V526.0H2375.1514892578125V428.77276611328125H2283.3731689453125V129.859619140625Q2283.3731689453125 108.42181396484375 2294.154266357422 96.82452392578125Q2304.9353637695312 85.22723388671875 2327.2272338867188 85.22723388671875H2375.1514892578125V3.95135498046875Q2365.1514892578125 -0.0972900390625 2350.7244567871094 -3.572967529296875Q2336.2974243164062 -7.04864501953125 2320.443359375 -9.5Q2304.5892944335938 -11.95135498046875 2290.7352294921875 -11.95135498046875ZM2678.0701904296875 0.0V686.0H2804.3731689453125V0.0ZM2952.8811645507812 399.1834716796875V449.11328125Q2976.3947143554688 453.16192626953125 2991.5785217285156 469.0403137207031Q3006.7623291015625 484.918701171875 3013.6163940429688 508.7484436035156Q3020.470458984375 532.5781860351562 3020.470458984375 560.4808959960938H2960.1730346679688V686.0H3084.1083984375V571.4808959960938Q3084.1083984375 513.5781860351562 3065.3273010253906 477.8943786621094Q3046.5462036132812 442.2105712890625 3016.654266357422 424.0997314453125Q2986.7623291015625 405.9888916015625 2952.8811645507812 399.1834716796875ZM3357.8269653320312 0.0 3162.8269653320312 526.0H3287.081298828125L3373.2001342773438 286.27587890625Q3379.2974243164062 269.081298828125 3387.8460693359375 240.581298828125Q3396.3947143554688 212.081298828125 3405.443359375 181.6785888671875Q3414.4920043945312 151.27587890625 3420.5406494140625 126.470458984375H3425.5406494140625Q3431.637939453125 149.3731689453125 3439.7352294921875 179.30020141601562Q3447.83251953125 209.22723388671875 3456.454132080078 238.20291137695312Q3465.0757446289062 267.1785888671875 3472.0757446289062 286.27587890625L3557.2432250976562 526.0H3677.5462036132812L3481.5948486328125 0.0ZM3972.7352294921875 -12.0Q3889.3676147460938 -12.0 3833.6351623535156 17.5Q3777.9027099609375 47.0 3749.9756774902344 108.0Q3722.0486450195312 169.0 3722.0486450195312 263.0Q3722.0486450195312 358.0 3749.9756774902344 418.5Q3777.9027099609375 479.0 3833.7081298828125 508.5Q3889.5135498046875 538.0 3973.1243896484375 538.0Q4048.9298095703125 538.0 4100.283874511719 509.4756774902344Q4151.637939453125 480.95135498046875 4177.589294433594 422.2189025878906Q4203.5406494140625 363.4864501953125 4203.5406494140625 270.50799560546875V233.82696533203125H3843.4489135742188Q3845.3516235351562 183.3189697265625 3858.765106201172 149.08929443359375Q3872.1785888671875 114.859619140625 3900.2623291015625 98.14071655273438Q3928.3460693359375 81.42181396484375 3973.83251953125 81.42181396484375Q3997.9513549804688 81.42181396484375 4018.5350952148438 87.71368408203125Q4039.1188354492188 94.00555419921875 4054.3863830566406 106.87039184570312Q4069.6539306640625 119.7352294921875 4078.251220703125 139.07574462890625Q4086.8485107421875 158.416259765625 4086.8971557617188 183.5135498046875H4203.297424316406Q4203.248779296875 134.2918701171875 4185.992004394531 97.4864501953125Q4168.7352294921875 60.6810302734375 4137.502777099609 36.53509521484375Q4106.270324707031 12.38916015625 4064.2703247070312 0.194580078125Q4022.2703247070312 -12.0 3972.7352294921875 -12.0ZM3845.3516235351562 317.7352294921875H4080.2863159179688Q4080.2863159179688 351.9027099609375 4072.518768310547 375.6567077636719Q4064.751220703125 399.41070556640625 4050.7647705078125 414.8241882324219Q4036.7783203125 430.2376708984375 4017.1702575683594 436.9322509765625Q3997.5621948242188 443.6268310546875 3972.8811645507812 443.6268310546875Q3933.1028442382812 443.6268310546875 3906.0191040039062 430.2133483886719Q3878.9353637695312 416.79986572265625 3864.5948486328125 388.9485778808594Q3850.2543334960938 361.0972900390625 3845.3516235351562 317.7352294921875ZM4785.324523925781 -12.0Q4734.129943847656 -12.0 4692.154266357422 8.5972900390625Q4650.1785888671875 29.194580078125 4624.032653808594 70.4864501953125H4617.032653808594L4607.1785888671875 0.0H4509.38916015625V723.0H4627.7894287109375V464.46490478515625H4633.838073730469Q4649.9840087890625 488.85406494140625 4673.129943847656 505.4270324707031Q4696.27587890625 522.0 4726.27587890625 530.0Q4756.27587890625 538.0 4791.9840087890625 538.0Q4851.27587890625 538.0 4896.824523925781 509.0Q4942.3731689453125 480.0 4968.324523925781 419.5729675292969Q4994.27587890625 359.14593505859375 4994.27587890625 264.2918701171875Q4994.27587890625 168.0972900390625 4968.824523925781 107.04864501953125Q4943.3731689453125 46.0 4896.897491455078 17.0Q4850.421813964844 -12.0 4785.324523925781 -12.0ZM4749.173034667969 89.9840087890625Q4794.1243896484375 89.9840087890625 4821.062194824219 107.581298828125Q4848.0 125.1785888671875 4859.962127685547 161.73800659179688Q4871.924255371094 198.29742431640625 4871.924255371094 254.65948486328125V269.43780517578125Q4871.924255371094 326.50799560546875 4860.059417724609 363.5430908203125Q4848.194580078125 400.57818603515625 4821.2081298828125 418.2970886230469Q4794.2216796875 436.0159912109375 4748.83251953125 436.0159912109375Q4718.1243896484375 436.0159912109375 4695.356842041016 425.1862487792969Q4672.589294433594 414.35650634765625 4657.602844238281 393.2835388183594Q4642.616394042969 372.2105712890625 4635.202911376953 340.57818603515625Q4627.7894287109375 308.94580078125 4627.7894287109375 268.2918701171875V254.95135498046875Q4627.7894287109375 201.97845458984375 4640.508331298828 165.32174682617188Q4653.227233886719 128.6650390625 4680.2623291015625 109.32452392578125Q4707.297424316406 89.9840087890625 4749.173034667969 89.9840087890625ZM5322.7352294921875 -12.0Q5239.367614746094 -12.0 5183.635162353516 17.5Q5127.9027099609375 47.0 5099.975677490234 108.0Q5072.048645019531 169.0 5072.048645019531 263.0Q5072.048645019531 358.0 5099.975677490234 418.5Q5127.9027099609375 479.0 5183.7081298828125 508.5Q5239.5135498046875 538.0 5323.1243896484375 538.0Q5398.9298095703125 538.0 5450.283874511719 509.4756774902344Q5501.637939453125 480.95135498046875 5527.589294433594 422.2189025878906Q5553.5406494140625 363.4864501953125 5553.5406494140625 270.50799560546875V233.82696533203125H5193.448913574219Q5195.351623535156 183.3189697265625 5208.765106201172 149.08929443359375Q5222.1785888671875 114.859619140625 5250.2623291015625 98.14071655273438Q5278.3460693359375 81.42181396484375 5323.83251953125 81.42181396484375Q5347.951354980469 81.42181396484375 5368.535095214844 87.71368408203125Q5389.118835449219 94.00555419921875 5404.386383056641 106.87039184570312Q5419.6539306640625 119.7352294921875 5428.251220703125 139.07574462890625Q5436.8485107421875 158.416259765625 5436.897155761719 183.5135498046875H5553.297424316406Q5553.248779296875 134.2918701171875 5535.992004394531 97.4864501953125Q5518.7352294921875 60.6810302734375 5487.502777099609 36.53509521484375Q5456.270324707031 12.38916015625 5414.270324707031 0.194580078125Q5372.270324707031 -12.0 5322.7352294921875 -12.0ZM5195.351623535156 317.7352294921875H5430.286315917969Q5430.286315917969 351.9027099609375 5422.518768310547 375.6567077636719Q5414.751220703125 399.41070556640625 5400.7647705078125 414.8241882324219Q5386.7783203125 430.2376708984375 5367.170257568359 436.9322509765625Q5347.562194824219 443.6268310546875 5322.881164550781 443.6268310546875Q5283.102844238281 443.6268310546875 5256.019104003906 430.2133483886719Q5228.935363769531 416.79986572265625 5214.5948486328125 388.9485778808594Q5200.254333496094 361.0972900390625 5195.351623535156 317.7352294921875ZM5882.7352294921875 -12.0Q5799.367614746094 -12.0 5743.635162353516 17.5Q5687.9027099609375 47.0 5659.975677490234 108.0Q5632.048645019531 169.0 5632.048645019531 263.0Q5632.048645019531 358.0 5659.975677490234 418.5Q5687.9027099609375 479.0 5743.7081298828125 508.5Q5799.5135498046875 538.0 5883.1243896484375 538.0Q5958.9298095703125 538.0 6010.283874511719 509.4756774902344Q6061.637939453125 480.95135498046875 6087.589294433594 422.2189025878906Q6113.5406494140625 363.4864501953125 6113.5406494140625 270.50799560546875V233.82696533203125H5753.448913574219Q5755.351623535156 183.3189697265625 5768.765106201172 149.08929443359375Q5782.1785888671875 114.859619140625 5810.2623291015625 98.14071655273438Q5838.3460693359375 81.42181396484375 5883.83251953125 81.42181396484375Q5907.951354980469 81.42181396484375 5928.535095214844 87.71368408203125Q5949.118835449219 94.00555419921875 5964.386383056641 106.87039184570312Q5979.6539306640625 119.7352294921875 5988.251220703125 139.07574462890625Q5996.8485107421875 158.416259765625 5996.897155761719 183.5135498046875H6113.297424316406Q6113.248779296875 134.2918701171875 6095.992004394531 97.4864501953125Q6078.7352294921875 60.6810302734375 6047.502777099609 36.53509521484375Q6016.270324707031 12.38916015625 5974.270324707031 0.194580078125Q5932.270324707031 -12.0 5882.7352294921875 -12.0ZM5755.351623535156 317.7352294921875H5990.286315917969Q5990.286315917969 351.9027099609375 5982.518768310547 375.6567077636719Q5974.751220703125 399.41070556640625 5960.7647705078125 414.8241882324219Q5946.7783203125 430.2376708984375 5927.170257568359 436.9322509765625Q5907.562194824219 443.6268310546875 5882.881164550781 443.6268310546875Q5843.102844238281 443.6268310546875 5816.019104003906 430.2133483886719Q5788.935363769531 416.79986572265625 5774.5948486328125 388.9485778808594Q5760.254333496094 361.0972900390625 5755.351623535156 317.7352294921875ZM6218.38916015625 0.0V526.0H6317.129943847656L6326.935363769531 455.07574462890625H6333.935363769531Q6352.227233886719 479.9027099609375 6376.970458984375 498.5729675292969Q6401.713684082031 517.2432250976562 6433.286651611328 527.6216125488281Q6464.859619140625 538.0 6502.7623291015625 538.0Q6552.7623291015625 538.0 6591.189361572266 520.1216125488281Q6629.616394042969 502.24322509765625 6651.543426513672 462.43780517578125Q6673.470458984375 422.63238525390625 6673.470458984375 355.8756103515625V0.0H6554.118835449219V334.94580078125Q6554.118835449219 363.4322509765625 6547.448577880859 382.1997985839844Q6540.7783203125 400.96734619140625 6528.035095214844 412.5403137207031Q6515.2918701171875 424.11328125 6497.024322509766 429.11328125Q6478.756774902344 434.11328125 6456.5135498046875 434.11328125Q6423.027099609375 434.11328125 6395.870391845703 417.87005615234375Q6368.713684082031 401.6268310546875 6352.751556396484 373.0187683105469Q6336.7894287109375 344.41070556640625 6336.7894287109375 306.34051513671875V0.0ZM7277.324523925781 -12.0Q7226.129943847656 -12.0 7184.154266357422 8.5972900390625Q7142.1785888671875 29.194580078125 7116.032653808594 70.4864501953125H7109.032653808594L7099.1785888671875 0.0H7001.38916015625V723.0H7119.7894287109375V464.46490478515625H7125.838073730469Q7141.9840087890625 488.85406494140625 7165.129943847656 505.4270324707031Q7188.27587890625 522.0 7218.27587890625 530.0Q7248.27587890625 538.0 7283.9840087890625 538.0Q7343.27587890625 538.0 7388.824523925781 509.0Q7434.3731689453125 480.0 7460.324523925781 419.5729675292969Q7486.27587890625 359.14593505859375 7486.27587890625 264.2918701171875Q7486.27587890625 168.0972900390625 7460.824523925781 107.04864501953125Q7435.3731689453125 46.0 7388.897491455078 17.0Q7342.421813964844 -12.0 7277.324523925781 -12.0ZM7241.173034667969 89.9840087890625Q7286.1243896484375 89.9840087890625 7313.062194824219 107.581298828125Q7340.0 125.1785888671875 7351.962127685547 161.73800659179688Q7363.924255371094 198.29742431640625 7363.924255371094 254.65948486328125V269.43780517578125Q7363.924255371094 326.50799560546875 7352.059417724609 363.5430908203125Q7340.194580078125 400.57818603515625 7313.2081298828125 418.2970886230469Q7286.2216796875 436.0159912109375 7240.83251953125 436.0159912109375Q7210.1243896484375 436.0159912109375 7187.356842041016 425.1862487792969Q7164.589294433594 414.35650634765625 7149.602844238281 393.2835388183594Q7134.616394042969 372.2105712890625 7127.202911376953 340.57818603515625Q7119.7894287109375 308.94580078125 7119.7894287109375 268.2918701171875V254.95135498046875Q7119.7894287109375 201.97845458984375 7132.508331298828 165.32174682617188Q7145.227233886719 128.6650390625 7172.2623291015625 109.32452392578125Q7199.297424316406 89.9840087890625 7241.173034667969 89.9840087890625ZM7757 -12Q7681.048645019531 -12.0 7633.670257568359 29.25677490234375Q7586.2918701171875 70.5135498046875 7586.2918701171875 170.1243896484375V526.0H7704.692138671875V191.05419921875Q7704.692138671875 162.5677490234375 7711.362396240234 143.80020141601562Q7718.032653808594 125.03265380859375 7730.77587890625 113.45968627929688Q7743.519104003906 101.88671875 7761.786651611328 96.88671875Q7780.05419921875 91.88671875 7802.297424316406 91.88671875Q7835.783874511719 91.88671875 7862.916259765625 108.12994384765625Q7890.048645019531 124.3731689453125 7906.035095214844 153.48123168945312Q7922.021545410156 182.58929443359375 7922.021545410156 219.65948486328125V526.0H8040.421813964844V0.0H7942.632385253906L7932.826965332031 70.92425537109375H7925.826965332031Q7907.535095214844 46.0972900390625 7882.816192626953 27.427032470703125Q7858.0972900390625 8.75677490234375 7826.5 -1.621612548828125Q7794.9027099609375 -12.0 7757 -12ZM8171.38916015625 608.94580078125V723.0H8289.789428710938V608.94580078125ZM8171.38916015625 0.0V526.0H8289.789428710938V0.0ZM8420.38916015625 0.0V723.0H8538.789428710938V0.0ZM8852 -12Q8787.902709960938 -12.0 8740.927032470703 17.0Q8693.951354980469 46.0 8668.5 107.04864501953125Q8643.048645019531 168.0972900390625 8643.048645019531 264.2918701171875Q8643.048645019531 359.14593505859375 8669.0 419.5729675292969Q8694.951354980469 480.0 8740.975677490234 509.0Q8787 538 8845.340515136719 538.0Q8881.243225097656 538.0 8911.21890258789 530.0Q8941.194580078125 522.0 8964.267547607422 505.4270324707031Q8987.340515136719 488.85406494140625 9003.486450195312 464.46490478515625H9009.535095214844V723.0H9127.935363769531V0.0H9030.145935058594L9020.291870117188 70.4864501953125H9013.291870117188Q8988.097290039062 29.194580078125 8945.524322509766 8.5972900390625Q8902.951354980469 -12.0 8852 -12ZM8888.151489257812 89.9840087890625Q8931.027099609375 89.9840087890625 8957.562194824219 109.32452392578125Q8984.097290039062 128.6650390625 8996.816192626953 165.32174682617188Q9009.535095214844 201.97845458984375 9009.535095214844 254.95135498046875V268.2918701171875Q9009.535095214844 308.94580078125 9002.121612548828 340.57818603515625Q8994.708129882812 372.2105712890625 8979.7216796875 393.2835388183594Q8964.735229492188 414.35650634765625 8941.967681884766 425.1862487792969Q8919.200134277344 436.0159912109375 8888.492004394531 436.0159912109375Q8843.102844238281 436.0159912109375 8816.116394042969 418.2970886230469Q8789.129943847656 400.57818603515625 8777.265106201172 363.5430908203125Q8765.400268554688 326.50799560546875 8765.400268554688 269.43780517578125V254.65948486328125Q8765.400268554688 198.29742431640625 8777.362396240234 161.73800659179688Q8789.324523925781 125.1785888671875 8816.262329101562 107.581298828125Q8843.200134277344 89.9840087890625 8888.151489257812 89.9840087890625ZM9258.38916015625 608.94580078125V723.0H9376.789428710938V608.94580078125ZM9258.38916015625 0.0V526.0H9376.789428710938V0.0ZM9507.38916015625 0.0V526.0H9606.129943847656L9615.935363769531 455.07574462890625H9622.935363769531Q9641.227233886719 479.9027099609375 9665.970458984375 498.5729675292969Q9690.713684082031 517.2432250976562 9722.286651611328 527.6216125488281Q9753.859619140625 538.0 9791.762329101562 538.0Q9841.762329101562 538.0 9880.189361572266 520.1216125488281Q9918.616394042969 502.24322509765625 9940.543426513672 462.43780517578125Q9962.470458984375 422.63238525390625 9962.470458984375 355.8756103515625V0.0H9843.118835449219V334.94580078125Q9843.118835449219 363.4322509765625 9836.44857788086 382.1997985839844Q9829.7783203125 400.96734619140625 9817.035095214844 412.5403137207031Q9804.291870117188 424.11328125 9786.024322509766 429.11328125Q9767.756774902344 434.11328125 9745.513549804688 434.11328125Q9712.027099609375 434.11328125 9684.870391845703 417.87005615234375Q9657.713684082031 401.6268310546875 9641.751556396484 373.0187683105469Q9625.789428710938 344.41070556640625 9625.789428710938 306.34051513671875V0.0ZM10176.583740234375 -182.0Q10141.340515136719 -182.0 10110.243225097656 -167.82974243164062Q10079.145935058594 -153.65948486328125 10060.145935058594 -125.98922729492188Q10041.145935058594 -98.3189697265625 10041.145935058594 -58.416259765625Q10041.145935058594 -14.416259765625 10066.5 11.472900390625Q10091.854064941406 37.362060546875 10123.243225097656 50.50799560546875Q10100.0 62.4593505859375 10085.548645019531 82.60528564453125Q10071.097290039062 102.751220703125 10071.097290039062 130.556640625Q10071.097290039062 168.31341552734375 10098.854064941406 190.9593505859375Q10126.61083984375 213.60528564453125 10162.659484863281 220.6539306640625Q10125.951354980469 243.60528564453125 10106.451354980469 279.4350280761719Q10086.951354980469 315.2647705078125 10086.951354980469 360.82696533203125Q10086.951354980469 415.34051513671875 10113.183807373047 454.694580078125Q10139.416259765625 494.04864501953125 10190.100067138672 516.0243225097656Q10240.783874511719 538.0 10312.637939453125 538.0Q10341.929809570312 538.0 10369.027099609375 533.9270324707031Q10396.124389648438 529.8540649414062 10418.173034667969 521.7081298828125Q10453.173034667969 542.1243896484375 10466.635162353516 568.4784545898438Q10480.097290039062 594.83251953125 10481.437805175781 612.805419921875H10597.081298828125Q10596.984008789062 578.2918701171875 10583.532653808594 551.3648376464844Q10570.081298828125 524.4378051757812 10546.154266357422 506.9134826660156Q10522.227233886719 489.38916015625 10488.324523925781 481.583740234375Q10513.373168945312 459.43780517578125 10526.324523925781 428.5107727050781Q10539.27587890625 397.583740234375 10539.27587890625 360.82696533203125Q10539.27587890625 306.362060546875 10513.99478149414 266.5323181152344Q10488.713684082031 226.70257568359375 10439.481231689453 204.70257568359375Q10390.248779296875 182.70257568359375 10318.346069335938 182.70257568359375H10237.200134277344Q10215.567749023438 182.70257568359375 10203.508331298828 173.53231811523438Q10191.448913574219 164.362060546875 10191.448913574219 147.583740234375Q10191.448913574219 133.85406494140625 10202.629943847656 123.63516235351562Q10213.810974121094 113.416259765625 10233.637939453125 113.416259765625H10461.935363769531Q10520.838073730469 113.416259765625 10559.192138671875 74.86761474609375Q10597.546203613281 36.3189697265625 10597.546203613281 -23.583740234375Q10597.546203613281 -68.38916015625 10574.240783691406 -104.26754760742188Q10550.935363769531 -140.14593505859375 10509.300201416016 -161.07296752929688Q10467.6650390625 -182.0 10412.200134277344 -182.0ZM10218.589294433594 -96.2376708984375H10411.151489257812Q10430.637939453125 -96.2376708984375 10445.600067138672 -89.39715576171875Q10460.562194824219 -82.556640625 10469.354064941406 -70.04586791992188Q10478.145935058594 -57.53509521484375 10478.145935058594 -42.0Q10478.145935058594 -15.1243896484375 10461.232452392578 -1.39471435546875Q10444.318969726562 12.3349609375 10419.735229492188 12.3349609375H10218.589294433594Q10193.810974121094 12.3349609375 10177.178588867188 -2.89471435546875Q10160.546203613281 -18.1243896484375 10160.546203613281 -42.0Q10160.546203613281 -66.0701904296875 10176.702911376953 -81.1539306640625Q10192.859619140625 -96.2376708984375 10218.589294433594 -96.2376708984375ZM10313.589294433594 266.61083984375Q10367.756774902344 266.61083984375 10394.767547607422 291.4756774902344Q10421.7783203125 316.34051513671875 10421.7783203125 360.82696533203125Q10421.7783203125 405.31341552734375 10394.767547607422 429.70257568359375Q10367.756774902344 454.09173583984375 10313.589294433594 454.09173583984375Q10259.470458984375 454.09173583984375 10232.435363769531 429.70257568359375Q10205.400268554688 405.31341552734375 10205.400268554688 360.82696533203125Q10205.400268554688 331.63238525390625 10217.143493652344 310.34051513671875Q10228.88671875 289.04864501953125 10252.897491455078 277.8297424316406Q10276.908264160156 266.61083984375 10313.589294433594 266.61083984375ZM10973.021545410156 0.0 10815.826965332031 526.0H10938.129943847656L11011.908264160156 239.65948486328125Q11017.908264160156 217.75677490234375 11022.078521728516 195.96490478515625Q11026.248779296875 174.17303466796875 11029.467681884766 158.58929443359375Q11032.686584472656 143.00555419921875 11033.881164550781 139.1785888671875H11039.83251953125Q11043.881164550781 157.27587890625 11048.00277709961 178.59207153320312Q11052.124389648438 199.90826416015625 11055.770324707031 217.87039184570312Q11059.416259765625 235.83251953125 11060.61083984375 242.5135498046875L11128.951354980469 526.0H11256.205688476562L11327.400268554688 241.56219482421875Q11331.448913574219 227.27032470703125 11335.094848632812 208.35684204101562Q11338.740783691406 189.443359375 11342.862396240234 170.98123168945312Q11346.984008789062 152.51910400390625 11349.081298828125 139.1785888671875H11355.032653808594Q11357.227233886719 151.5677490234375 11360.921813964844 169.05419921875Q11364.616394042969 186.5406494140625 11368.810974121094 205.00277709960938Q11373.005554199219 223.46490478515625 11376.151489257812 238.7081298828125L11448.978454589844 526.0H11562.476013183594L11406.232788085938 0.0H11281.416259765625L11220.540649414062 253.2376708984375Q11216.540649414062 272.18902587890625 11210.967681884766 296.3592834472656Q11205.394714355469 320.529541015625 11200.797424316406 344.7970886230469Q11196.200134277344 369.06463623046875 11193.102844238281 386.35650634765625H11187.102844238281Q11186.859619140625 378.57818603515625 11183.689361572266 360.0187683105469Q11180.519104003906 341.4593505859375 11174.970458984375 314.4350280761719Q11169.421813964844 287.41070556640625 11160.616394042969 253.18902587890625L11097.88671875 0.0ZM11631.38916015625 608.94580078125V723.0H11749.789428710938V608.94580078125ZM11631.38916015625 0.0V526.0H11749.789428710938V0.0ZM12017.735229492188 -11.95135498046875Q11969.61083984375 -11.95135498046875 11942.097290039062 7.086517333984375Q11914.583740234375 26.1243896484375 11903.2783203125 56.08929443359375Q11891.972900390625 86.05419921875 11891.972900390625 117.7623291015625V428.77276611328125H11828.437805175781V526.0H11894.826965332031L11916.243225097656 672.9513549804688H12010.373168945312V526.0H12102.151489257812V428.77276611328125H12010.373168945312V129.859619140625Q12010.373168945312 108.42181396484375 12021.154266357422 96.82452392578125Q12031.935363769531 85.22723388671875 12054.227233886719 85.22723388671875H12102.151489257812V3.95135498046875Q12092.151489257812 -0.0972900390625 12077.72445678711 -3.572967529296875Q12063.297424316406 -7.04864501953125 12047.443359375 -9.5Q12031.589294433594 -11.95135498046875 12017.735229492188 -11.95135498046875ZM12192.38916015625 0.0V723.0H12310.789428710938V465.416259765625H12317.789428710938Q12335.129943847656 487.0 12358.348846435547 503.0972900390625Q12381.567749023438 519.194580078125 12411.1650390625 528.5972900390625Q12440.762329101562 538.0 12476.762329101562 538.0Q12526.762329101562 538.0 12565.189361572266 520.1216125488281Q12603.616394042969 502.24322509765625 12625.543426513672 462.43780517578125Q12647.470458984375 422.63238525390625 12647.470458984375 355.8756103515625V0.0H12528.118835449219V334.94580078125Q12528.118835449219 363.4322509765625 12521.44857788086 382.1997985839844Q12514.7783203125 400.96734619140625 12502.035095214844 412.5403137207031Q12489.291870117188 424.11328125 12471.024322509766 429.11328125Q12452.756774902344 434.11328125 12430.513549804688 434.11328125Q12397.027099609375 434.11328125 12369.870391845703 417.9430236816406Q12342.713684082031 401.77276611328125 12326.751556396484 373.18902587890625Q12310.789428710938 344.60528564453125 12310.789428710938 306.34051513671875V0.0ZM12915.243225097656 0.0 13182.681030273438 686.0H13342.49755859375L13610.88671875 0.0H13473.924255371094L13417.708129882812 148.529541015625H13101.567749023438L13045.400268554688 0.0ZM13141.546203613281 255.5135498046875H13376.7783203125L13306.270324707031 444.57818603515625Q13302.318969726562 454.48089599609375 13296.794647216797 470.0052185058594Q13291.270324707031 485.529541015625 13285.173034667969 504.1511535644531Q13279.075744628906 522.7727661132812 13272.954132080078 541.918701171875Q13266.83251953125 561.0646362304688 13261.735229492188 576.2592163085938H13256.589294433594Q13250.540649414062 556.307861328125 13241.967681884766 530.307861328125Q13233.394714355469 504.307861328125 13225.297424316406 481.1376037597656Q13217.200134277344 457.96734619140625 13212.05419921875 444.57818603515625ZM13693.070190429688 0.0V686.0H13819.373168945312V0.0ZM13974.951354980469 -161.29742431640625V-111.36761474609375Q13999.416259765625 -107.3189697265625 14014.124389648438 -91.44058227539062Q14028.83251953125 -75.56219482421875 14036.16226196289 -51.732452392578125Q14043.492004394531 -27.9027099609375 14043.492004394531 0.0H13983.194580078125V125.51910400390625H14106.178588867188V11.0Q14106.178588867188 -46.95135498046875 14087.897491455078 -82.58651733398438Q14069.616394042969 -118.2216796875 14039.700134277344 -136.35684204101562Q14009.783874511719 -154.49200439453125 13974.951354980469 -161.29742431640625Z" transform="translate(44 323) scale(0.037 -0.037)" fill="#f5f3ed"/>
<path d="M200.4864501953125 -12.0Q175.081298828125 -12.0 146.0948486328125 -5.77032470703125Q117.1083984375 0.4593505859375 91.581298828125 16.067413330078125Q66.05419921875 31.67547607421875 50.148712158203125 60.567413330078125Q34.24322509765625 89.4593505859375 34.24322509765625 134.78387451171875Q34.24322509765625 189.027099609375 59.21612548828125 224.16226196289062Q84.18902587890625 259.29742431640625 129.26998901367188 279.31097412109375Q174.3509521484375 299.32452392578125 236.67514038085938 307.33807373046875Q298.99932861328125 315.35162353515625 372.701904296875 315.35162353515625V367.10772705078125Q372.701904296875 393.2696533203125 364.1209411621094 412.97222900390625Q355.53997802734375 432.6748046875 333.3916015625 443.7828674316406Q311.24322509765625 454.89093017578125 268.89227294921875 454.89093017578125Q227.27099609375 454.89093017578125 203.47390747070312 444.5531921386719Q179.67681884765625 434.2154541015625 170.33908081054688 418.4183654785156Q161.0013427734375 402.62127685546875 161.0013427734375 384.72967529296875V370.0H60.5135498046875Q59.5135498046875 375.0 59.5135498046875 380.0Q59.5135498046875 385.0 59.5135498046875 392.0Q59.5135498046875 438.70257568359375 86.27032470703125 471.4593505859375Q113.027099609375 504.21612548828125 160.90548706054688 521.1080627441406Q208.78387451171875 538.0 271.5406494140625 538.0Q340.37872314453125 538.0 385.66259765625 518.6080627441406Q430.94647216796875 499.21612548828125 453.8248596191406 463.3106384277344Q476.7032470703125 427.4051513671875 476.7032470703125 376.10772705078125V108.64971923828125Q476.7032470703125 89.64971923828125 486.48712158203125 81.8929443359375Q496.27099609375 74.13616943359375 509.27099609375 74.13616943359375H544.9193725585938V3.75677490234375Q532.9735717773438 -1.21612548828125 514.9464721679688 -6.108062744140625Q496.91937255859375 -11.0 472.5677490234375 -11.0Q446.32452392578125 -11.0 427.77032470703125 -1.527099609375Q409.21612548828125 7.94580078125 397.7699890136719 25.283538818359375Q386.3238525390625 42.62127685546875 381.783203125 65.3509521484375H375.53997802734375Q357.810302734375 42.16192626953125 332.2428894042969 24.567413330078125Q306.67547607421875 6.972900390625 273.8377380371094 -2.5135498046875Q241 -12 200.4864501953125 -12.0ZM229.46002197265625 74.13616943359375Q260.43292236328125 74.13616943359375 286.7300109863281 83.74423217773438Q313.027099609375 93.352294921875 331.9322509765625 110.56842041015625Q350.83740234375 127.7845458984375 361.7696533203125 152.36550903320312Q372.701904296875 176.94647216796875 372.701904296875 206.135498046875V240.83740234375Q304.081298828125 240.83740234375 251.86550903320312 232.74288940429688Q199.64971923828125 224.64837646484375 170.69036865234375 203.4593505859375Q141.73101806640625 182.27032470703125 141.73101806640625 143.6219482421875Q141.73101806640625 121.243896484375 152.05520629882812 105.67648315429688Q162.37939453125 90.10906982421875 182.19003295898438 82.12261962890625Q202.00067138671875 74.13616943359375 229.46002197265625 74.13616943359375ZM616.94580078125 0.0V526.0H702.6497192382812L711.6768188476562 451.37872314453125H718.6768188476562Q738.1361694335938 479.5135498046875 763.852294921875 498.8648376464844Q789.5684204101562 518.2161254882812 821.4332580566406 528.1080627441406Q853.298095703125 538.0 890.8116455078125 538.0Q940.8116455078125 538.0 978.9468078613281 520.6080627441406Q1017.0819702148438 503.21612548828125 1038.7171325683594 464.18902587890625Q1060.352294921875 425.16192626953125 1060.352294921875 359.3780517578125V0.0H955.5941772460938V342.72900390625Q955.5941772460938 373.1612548828125 948.2428894042969 392.9989929199219Q940.8916015625 412.83673095703125 927.1754760742188 424.7015686035156Q913.4593505859375 436.56640625 894.1216125488281 441.56640625Q874.7838745117188 446.56640625 851.5677490234375 446.56640625Q816.135498046875 446.56640625 786.3519592285156 429.35028076171875Q756.5684204101562 412.1341552734375 738.7577819824219 381.0938415527344Q720.9471435546875 350.05352783203125 720.9471435546875 307.70257568359375V0.0ZM1371 -12Q1306.5135498046875 -12.0 1259.6351623535156 17.0Q1212.7567749023438 46.0 1187.5 107.24322509765625Q1162.2432250976562 168.4864501953125 1162.2432250976562 265.4593505859375Q1162.2432250976562 359.72967529296875 1188.0 419.8648376464844Q1213.7567749023438 480.0 1259.8783874511719 509.0Q1306 538 1365.7025756835938 538.0Q1401.2161254882812 538.0 1431.0945129394531 530.0Q1460.972900390625 522.0 1484.3377380371094 505.1351623535156Q1507.7025756835938 488.27032470703125 1524.4322509765625 462.32452392578125H1530.6754760742188V723.0H1634.6768188476562V0.0H1549.7296752929688L1540.4593505859375 72.4322509765625H1533.4593505859375Q1507.4864501953125 29.972900390625 1464.6216125488281 8.9864501953125Q1421.7567749023438 -12.0 1371 -12ZM1399.7574462890625 77.9200439453125Q1446.135498046875 77.9200439453125 1474.8109741210938 98.62261962890625Q1503.4864501953125 119.3251953125 1517.0809631347656 158.60873413085938Q1530.6754760742188 197.89227294921875 1530.6754760742188 254.75677490234375V269.4593505859375Q1530.6754760742188 316.72900390625 1521.6080627441406 350.89093017578125Q1512.5406494140625 385.0528564453125 1495.6083984375 406.4176940917969Q1478.6761474609375 427.78253173828125 1454.8384094238281 437.9312438964844Q1431.0006713867188 448.0799560546875 1401.4600219726562 448.0799560546875Q1354.5142211914062 448.0799560546875 1325.5819702148438 429.4854431152344Q1296.6497192382812 410.89093017578125 1283.3255310058594 371.7154541015625Q1270.0013427734375 332.53997802734375 1270.0013427734375 271.18902587890625V253.29742431640625Q1270.0013427734375 191.48712158203125 1283.8119812011719 152.69003295898438Q1297.6226196289062 113.8929443359375 1326.3116455078125 95.906494140625Q1355.0006713867188 77.9200439453125 1399.7574462890625 77.9200439453125ZM1973.94580078125 0.0V723.0H2077.9471435546875V463.081298828125H2084.9471435546875Q2103.6497192382812 487.0 2127.7442321777344 503.4864501953125Q2151.8387451171875 519.972900390625 2181.8251953125 528.9864501953125Q2211.8116455078125 538.0 2247.8116455078125 538.0Q2297.8116455078125 538.0 2335.946807861328 520.6080627441406Q2374.0819702148438 503.21612548828125 2395.7171325683594 464.18902587890625Q2417.352294921875 425.16192626953125 2417.352294921875 359.3780517578125V0.0H2312.5941772460938V342.72900390625Q2312.5941772460938 373.1612548828125 2305.242889404297 392.9989929199219Q2297.8916015625 412.83673095703125 2284.1754760742188 424.7015686035156Q2270.4593505859375 436.56640625 2251.121612548828 441.56640625Q2231.7838745117188 446.56640625 2208.5677490234375 446.56640625Q2173.135498046875 446.56640625 2143.3519592285156 429.7151184082031Q2113.5684204101562 412.86383056640625 2095.757781982422 381.94512939453125Q2077.9471435546875 351.02642822265625 2077.9471435546875 307.70257568359375V0.0ZM2771.4600219726562 -12.0Q2688.8651733398438 -12.0 2632.5677490234375 17.5Q2576.2703247070312 47.0 2547.7567749023438 108.0Q2519.2432250976562 169.0 2519.2432250976562 263.0Q2519.2432250976562 358.0 2547.7567749023438 418.5Q2576.2703247070312 479.0 2632.5677490234375 508.5Q2688.8651733398438 538.0 2771.4600219726562 538.0Q2855.0548706054688 538.0 2910.852294921875 508.5Q2966.6497192382812 479.0 2995.1632690429688 418.5Q3023.6768188476562 358.0 3023.6768188476562 263.0Q3023.6768188476562 169.0 2995.1632690429688 108.0Q2966.6497192382812 47.0 2910.852294921875 17.5Q2855.0548706054688 -12.0 2771.4600219726562 -12.0ZM2771.4600219726562 74.13616943359375Q2821.16259765625 74.13616943359375 2853.0948486328125 93.48745727539062Q2885.027099609375 112.8387451171875 2900.472900390625 152.89260864257812Q2915.918701171875 192.94647216796875 2915.918701171875 254.05419921875V271.94580078125Q2915.918701171875 333.2967529296875 2900.472900390625 373.22900390625Q2885.027099609375 413.1612548828125 2853.0948486328125 432.5125427246094Q2821.16259765625 451.86383056640625 2771.4600219726562 451.86383056640625Q2721.7574462890625 451.86383056640625 2689.8251953125 432.5125427246094Q2657.8929443359375 413.1612548828125 2642.4471435546875 373.22900390625Q2627.0013427734375 333.2967529296875 2627.0013427734375 271.94580078125V254.05419921875Q2627.0013427734375 192.94647216796875 2642.4471435546875 152.89260864257812Q2657.8929443359375 112.8387451171875 2689.8251953125 93.48745727539062Q2721.7574462890625 74.13616943359375 2771.4600219726562 74.13616943359375ZM3228.1077270507812 0.0 3070.1348266601562 526.0H3177.6497192382812L3254.5413208007812 238.29742431640625Q3260.5413208007812 216.78387451171875 3265.392608642578 193.82452392578125Q3270.243896484375 170.86517333984375 3274.338409423828 152.94647216796875Q3278.4329223632812 135.02777099609375 3280.4058227539062 127.8929443359375H3286.16259765625Q3290.4058227539062 146.37939453125 3295.013885498047 168.96035766601562Q3299.6219482421875 191.54132080078125 3303.8516235351562 211.35195922851562Q3308.081298828125 231.16259765625 3310.05419921875 240.5677490234375L3379.7567749023438 526.0H3492.0284423828125L3564.0013427734375 239.81097412109375Q3568.2445678710938 224.35162353515625 3572.4742431640625 203.78421020507812Q3576.7039184570312 183.216796875 3581.311981201172 162.90615844726562Q3585.9200439453125 142.59552001953125 3588.406494140625 127.8929443359375H3594.1632690429688Q3597.1361694335938 141.8387451171875 3601.6090698242188 161.27099609375Q3606.0819702148438 180.7032470703125 3611.0548706054688 201.01388549804688Q3616.0277709960938 221.32452392578125 3619.7574462890625 237.5406494140625L3695.8922729492188 526.0H3795.3800659179688L3638.1639404296875 0.0H3530.081298828125L3465.7032470703125 262.1883544921875Q3461.7032470703125 280.94512939453125 3455.838409423828 305.7964172363281Q3449.9735717773438 330.647705078125 3444.9871215820312 355.9854431152344Q3440.0006713867188 381.32318115234375 3436.5142211914062 399.78253173828125H3430.5142211914062Q3429.298095703125 388.89093017578125 3425.446807861328 368.0938415527344Q3421.5955200195312 347.2967529296875 3415.852294921875 320.1751403808594Q3410.1090698242188 293.05352783203125 3402.0819702148438 261.94512939453125L3336.43359375 0.0ZM4074.94580078125 616.72900390625V723.0H4178.9471435546875V616.72900390625ZM4074.94580078125 0.0V526.0H4178.9471435546875V0.0ZM4443.6761474609375 -11.75677490234375Q4399.05419921875 -11.75677490234375 4373.4864501953125 5.432586669921875Q4347.918701171875 22.6219482421875 4337.3916015625 50.44647216796875Q4326.864501953125 78.27099609375 4326.864501953125 108.8116455078125V439.86383056640625H4261.189025878906V526.0H4329.134826660156L4348.216125488281 672.7567749023438H4430.8658447265625V526.0H4525.7574462890625V439.86383056640625H4430.8658447265625V121.298095703125Q4430.8658447265625 98.10906982421875 4440.771331787109 86.12261962890625Q4450.676818847656 74.13616943359375 4474.136169433594 74.13616943359375H4525.7574462890625V3.75677490234375Q4515.7574462890625 -0.4864501953125 4501.622283935547 -3.864837646484375Q4487.487121582031 -7.24322509765625 4472.216796875 -9.5Q4456.946472167969 -11.75677490234375 4443.6761474609375 -11.75677490234375ZM4618.405822753906 415.9173583984375V461.56640625Q4639.973571777344 465.80963134765625 4653.892608642578 481.2015686035156Q4667.8116455078125 496.593505859375 4674.081970214844 519.7422180175781Q4680.352294921875 542.8909301757812 4680.352294921875 570.4044799804688H4626.865173339844V686.0H4738.5419921875V581.4044799804688Q4738.5419921875 523.8909301757812 4720.636505126953 489.4718933105469Q4702.731018066406 455.0528564453125 4675.271331787109 438.4986572265625Q4647.8116455078125 421.9444580078125 4618.405822753906 415.9173583984375ZM5070.000671386719 -12.0Q5014.7032470703125 -12.0 4972.797760009766 -0.22967529296875Q4930.892272949219 11.5406494140625 4902.743560791016 32.932586669921875Q4874.5948486328125 54.32452392578125 4860.459686279297 83.70291137695312Q4846.324523925781 113.081298828125 4846.324523925781 149.05419921875Q4846.324523925781 153.81097412109375 4846.702911376953 158.05419921875Q4847.081298828125 162.29742431640625 4847.324523925781 164.78387451171875H4949.812316894531Q4949.569091796875 161.81097412109375 4949.569091796875 159.32452392578125Q4949.569091796875 156.83807373046875 4949.569091796875 154.35162353515625Q4950.325866699219 123.216796875 4967.177154541016 104.77099609375Q4984.0284423828125 86.3251953125 5012.582305908203 78.71713256835938Q5041.136169433594 71.10906982421875 5075.000671386719 71.10906982421875Q5104.892272949219 71.10906982421875 5130.581298828125 78.3116455078125Q5156.270324707031 85.51422119140625 5172.5 100.689697265625Q5188.729675292969 115.86517333984375 5188.729675292969 139.27032470703125Q5188.729675292969 169.16192626953125 5167.756774902344 184.98611450195312Q5146.783874511719 200.810302734375 5113.0677490234375 210.41836547851562Q5079.351623535156 220.02642822265625 5041.6219482421875 230.51287841796875Q5009.1083984375 239.51287841796875 4976.716461181641 250.39126586914062Q4944.324523925781 261.2696533203125 4918.310974121094 277.9048156738281Q4892.297424316406 294.53997802734375 4876.283874511719 320.810302734375Q4860.270324707031 347.08062744140625 4860.270324707031 386.3509521484375Q4860.270324707031 423.16192626953125 4876.05419921875 451.18902587890625Q4891.838073730469 479.21612548828125 4920.257110595703 498.3512878417969Q4948.6761474609375 517.4864501953125 4988.216796875 527.3648376464844Q5027.7574462890625 537.2432250976562 5075.27099609375 537.2432250976562Q5124.216796875 537.2432250976562 5162.108734130859 526.6351623535156Q5200.000671386719 516.027099609375 5226.554870605469 496.79742431640625Q5253.109069824219 477.5677490234375 5266.906494140625 451.4325866699219Q5280.703918457031 425.29742431640625 5280.703918457031 394.75677490234375Q5280.703918457031 388.72967529296875 5280.325531005859 382.4593505859375Q5279.9471435546875 376.18902587890625 5279.703918457031 374.21612548828125H5177.972900390625V383.4051513671875Q5177.972900390625 402.8916015625 5166.9593505859375 418.8238525390625Q5155.94580078125 434.756103515625 5132.5 444.8235168457031Q5109.05419921875 454.89093017578125 5070.000671386719 454.89093017578125Q5043.568420410156 454.89093017578125 5023.8658447265625 450.40447998046875Q5004.163269042969 445.91802978515625 4991.325531005859 437.8235168457031Q4978.48779296875 429.72900390625 4971.879730224609 418.783203125Q4965.271667480469 407.83740234375 4965.271667480469 393.918701171875Q4965.271667480469 371.27032470703125 4981.48779296875 358.6893615722656Q4997.703918457031 346.1083984375 5024.784881591797 337.6219482421875Q5051.8658447265625 329.135498046875 5083.3251953125 319.40582275390625Q5118.8387451171875 309.16259765625 5155.987457275391 298.5409851074219Q5193.136169433594 287.91937255859375 5224.663269042969 271.91937255859375Q5256.190368652344 255.91937255859375 5275.460693359375 227.77066040039062Q5294.731018066406 199.6219482421875 5294.731018066406 153.32452392578125Q5294.731018066406 109.5135498046875 5277.839080810547 77.86483764648438Q5260.9471435546875 46.21612548828125 5230.663269042969 26.472900390625Q5200.37939453125 6.72967529296875 5159.3387451171875 -2.635162353515625Q5118.298095703125 -12.0 5070.000671386719 -12.0ZM5738.4864501953125 -12.0Q5713.081298828125 -12.0 5684.0948486328125 -5.77032470703125Q5655.1083984375 0.4593505859375 5629.581298828125 16.067413330078125Q5604.05419921875 31.67547607421875 5588.148712158203 60.567413330078125Q5572.243225097656 89.4593505859375 5572.243225097656 134.78387451171875Q5572.243225097656 189.027099609375 5597.216125488281 224.16226196289062Q5622.189025878906 259.29742431640625 5667.269989013672 279.31097412109375Q5712.3509521484375 299.32452392578125 5774.675140380859 307.33807373046875Q5836.999328613281 315.35162353515625 5910.701904296875 315.35162353515625V367.10772705078125Q5910.701904296875 393.2696533203125 5902.120941162109 412.97222900390625Q5893.539978027344 432.6748046875 5871.3916015625 443.7828674316406Q5849.243225097656 454.89093017578125 5806.892272949219 454.89093017578125Q5765.27099609375 454.89093017578125 5741.473907470703 444.5531921386719Q5717.676818847656 434.2154541015625 5708.339080810547 418.4183654785156Q5699.0013427734375 402.62127685546875 5699.0013427734375 384.72967529296875V370.0H5598.5135498046875Q5597.5135498046875 375.0 5597.5135498046875 380.0Q5597.5135498046875 385.0 5597.5135498046875 392.0Q5597.5135498046875 438.70257568359375 5624.270324707031 471.4593505859375Q5651.027099609375 504.21612548828125 5698.905487060547 521.1080627441406Q5746.783874511719 538.0 5809.5406494140625 538.0Q5878.378723144531 538.0 5923.66259765625 518.6080627441406Q5968.946472167969 499.21612548828125 5991.824859619141 463.3106384277344Q6014.7032470703125 427.4051513671875 6014.7032470703125 376.10772705078125V108.64971923828125Q6014.7032470703125 89.64971923828125 6024.487121582031 81.8929443359375Q6034.27099609375 74.13616943359375 6047.27099609375 74.13616943359375H6082.919372558594V3.75677490234375Q6070.973571777344 -1.21612548828125 6052.946472167969 -6.108062744140625Q6034.919372558594 -11.0 6010.5677490234375 -11.0Q5984.324523925781 -11.0 5965.770324707031 -1.527099609375Q5947.216125488281 7.94580078125 5935.769989013672 25.283538818359375Q5924.3238525390625 42.62127685546875 5919.783203125 65.3509521484375H5913.539978027344Q5895.810302734375 42.16192626953125 5870.242889404297 24.567413330078125Q5844.675476074219 6.972900390625 5811.837738037109 -2.5135498046875Q5779 -12 5738.4864501953125 -12.0ZM5767.460021972656 74.13616943359375Q5798.432922363281 74.13616943359375 5824.730010986328 83.74423217773438Q5851.027099609375 93.352294921875 5869.9322509765625 110.56842041015625Q5888.83740234375 127.7845458984375 5899.7696533203125 152.36550903320312Q5910.701904296875 176.94647216796875 5910.701904296875 206.135498046875V240.83740234375Q5842.081298828125 240.83740234375 5789.865509033203 232.74288940429688Q5737.649719238281 224.64837646484375 5708.690368652344 203.4593505859375Q5679.731018066406 182.27032470703125 5679.731018066406 143.6219482421875Q5679.731018066406 121.243896484375 5690.055206298828 105.67648315429688Q5700.37939453125 90.10906982421875 5720.190032958984 82.12261962890625Q5740.000671386719 74.13616943359375 5767.460021972656 74.13616943359375ZM6364.216796875 -12.0Q6285.378723144531 -12.0 6232.338073730469 17.621612548828125Q6179.297424316406 47.24322509765625 6152.5406494140625 108.36483764648438Q6125.783874511719 169.4864501953125 6125.783874511719 263.0Q6125.783874511719 356.78387451171875 6152.797424316406 417.527099609375Q6179.810974121094 478.27032470703125 6233.216461181641 508.1351623535156Q6286.6219482421875 538.0 6365.432922363281 538.0Q6419.16259765625 538.0 6459.311309814453 524.5135498046875Q6499.460021972656 511.027099609375 6527.135833740234 484.28387451171875Q6554.8116455078125 457.5406494140625 6568.473907470703 418.9054870605469Q6582.136169433594 380.27032470703125 6582.136169433594 330.21612548828125H6476.864501953125Q6476.864501953125 372.08062744140625 6465.013214111328 398.8777160644531Q6453.161926269531 425.6748046875 6428.229675292969 439.147705078125Q6403.297424316406 452.62060546875 6363.432922363281 452.62060546875Q6321.216796875 452.62060546875 6292.054870605469 433.37738037109375Q6262.8929443359375 414.1341552734375 6247.839080810547 374.3235168457031Q6232.785217285156 334.51287841796875 6232.785217285156 271.18902587890625V254.05419921875Q6232.785217285156 192.94647216796875 6247.352630615234 152.51422119140625Q6261.9200439453125 112.08197021484375 6291.595520019531 92.73068237304688Q6321.27099609375 73.37939453125 6366.7303466796875 73.37939453125Q6406.5677490234375 73.37939453125 6431.5 87.58197021484375Q6456.4322509765625 101.7845458984375 6468.918701171875 129.58163452148438Q6481.4051513671875 157.37872314453125 6481.4051513671875 195.78387451171875H6582.136169433594Q6582.136169433594 149.4593505859375 6568.473907470703 111.06741333007812Q6554.8116455078125 72.67547607421875 6527.392608642578 45.18902587890625Q6499.973571777344 17.70257568359375 6459.2032470703125 2.851287841796875Q6418.432922363281 -12.0 6364.216796875 -12.0ZM6817.6761474609375 -11.75677490234375Q6773.05419921875 -11.75677490234375 6747.4864501953125 5.432586669921875Q6721.918701171875 22.6219482421875 6711.3916015625 50.44647216796875Q6700.864501953125 78.27099609375 6700.864501953125 108.8116455078125V439.86383056640625H6635.189025878906V526.0H6703.134826660156L6722.216125488281 672.7567749023438H6804.8658447265625V526.0H6899.7574462890625V439.86383056640625H6804.8658447265625V121.298095703125Q6804.8658447265625 98.10906982421875 6814.771331787109 86.12261962890625Q6824.676818847656 74.13616943359375 6848.136169433594 74.13616943359375H6899.7574462890625V3.75677490234375Q6889.7574462890625 -0.4864501953125 6875.622283935547 -3.864837646484375Q6861.487121582031 -7.24322509765625 6846.216796875 -9.5Q6830.946472167969 -11.75677490234375 6817.6761474609375 -11.75677490234375ZM7157 -12Q7081.243225097656 -12.0 7034.351287841797 28.28387451171875Q6987.4593505859375 68.5677490234375 6987.4593505859375 166.6219482421875V526.0H7091.460693359375V183.27099609375Q7091.460693359375 152.8387451171875 7098.811981201172 133.00100708007812Q7106.163269042969 113.16326904296875 7119.87939453125 101.29843139648438Q7133.595520019531 89.43359375 7152.933258056641 84.43359375Q7172.27099609375 79.43359375 7195.487121582031 79.43359375Q7230.919372558594 79.43359375 7260.581298828125 96.64971923828125Q7290.243225097656 113.8658447265625 7308.175476074219 145.40615844726562Q7326.107727050781 176.94647216796875 7326.107727050781 218.29742431640625V526.0H7430.109069824219V0.0H7345.161926269531L7336.134826660156 74.62127685546875H7329.134826660156Q7309.675476074219 46.4864501953125 7284.080963134766 27.135162353515625Q7258.4864501953125 7.78387451171875 7226.5 -2.108062744140625Q7194.5135498046875 -12.0 7157 -12ZM7697.4864501953125 -12.0Q7672.081298828125 -12.0 7643.0948486328125 -5.77032470703125Q7614.1083984375 0.4593505859375 7588.581298828125 16.067413330078125Q7563.05419921875 31.67547607421875 7547.148712158203 60.567413330078125Q7531.243225097656 89.4593505859375 7531.243225097656 134.78387451171875Q7531.243225097656 189.027099609375 7556.216125488281 224.16226196289062Q7581.189025878906 259.29742431640625 7626.269989013672 279.31097412109375Q7671.3509521484375 299.32452392578125 7733.675140380859 307.33807373046875Q7795.999328613281 315.35162353515625 7869.701904296875 315.35162353515625V367.10772705078125Q7869.701904296875 393.2696533203125 7861.120941162109 412.97222900390625Q7852.539978027344 432.6748046875 7830.3916015625 443.7828674316406Q7808.243225097656 454.89093017578125 7765.892272949219 454.89093017578125Q7724.27099609375 454.89093017578125 7700.473907470703 444.5531921386719Q7676.676818847656 434.2154541015625 7667.339080810547 418.4183654785156Q7658.0013427734375 402.62127685546875 7658.0013427734375 384.72967529296875V370.0H7557.5135498046875Q7556.5135498046875 375.0 7556.5135498046875 380.0Q7556.5135498046875 385.0 7556.5135498046875 392.0Q7556.5135498046875 438.70257568359375 7583.270324707031 471.4593505859375Q7610.027099609375 504.21612548828125 7657.905487060547 521.1080627441406Q7705.783874511719 538.0 7768.5406494140625 538.0Q7837.378723144531 538.0 7882.66259765625 518.6080627441406Q7927.946472167969 499.21612548828125 7950.824859619141 463.3106384277344Q7973.7032470703125 427.4051513671875 7973.7032470703125 376.10772705078125V108.64971923828125Q7973.7032470703125 89.64971923828125 7983.487121582031 81.8929443359375Q7993.27099609375 74.13616943359375 8006.27099609375 74.13616943359375H8041.919372558594V3.75677490234375Q8029.973571777344 -1.21612548828125 8011.946472167969 -6.108062744140625Q7993.919372558594 -11.0 7969.5677490234375 -11.0Q7943.324523925781 -11.0 7924.770324707031 -1.527099609375Q7906.216125488281 7.94580078125 7894.769989013672 25.283538818359375Q7883.3238525390625 42.62127685546875 7878.783203125 65.3509521484375H7872.539978027344Q7854.810302734375 42.16192626953125 7829.242889404297 24.567413330078125Q7803.675476074219 6.972900390625 7770.837738037109 -2.5135498046875Q7738 -12 7697.4864501953125 -12.0ZM7726.460021972656 74.13616943359375Q7757.432922363281 74.13616943359375 7783.730010986328 83.74423217773438Q7810.027099609375 93.352294921875 7828.9322509765625 110.56842041015625Q7847.83740234375 127.7845458984375 7858.7696533203125 152.36550903320312Q7869.701904296875 176.94647216796875 7869.701904296875 206.135498046875V240.83740234375Q7801.081298828125 240.83740234375 7748.865509033203 232.74288940429688Q7696.649719238281 224.64837646484375 7667.690368652344 203.4593505859375Q7638.731018066406 182.27032470703125 7638.731018066406 143.6219482421875Q7638.731018066406 121.243896484375 7649.055206298828 105.67648315429688Q7659.37939453125 90.10906982421875 7679.190032958984 82.12261962890625Q7699.000671386719 74.13616943359375 7726.460021972656 74.13616943359375ZM8113.94580078125 0.0V723.0H8217.947143554688V0.0ZM8351.94580078125 0.0V723.0H8455.947143554688V0.0ZM8647.054870605469 -182.0Q8616.621948242188 -182.0 8596.66226196289 -177.59451293945312Q8576.702575683594 -173.18902587890625 8571.756774902344 -172.18902587890625V-97.1070556640625H8621.676147460938Q8644.378723144531 -97.1070556640625 8666.473236083984 -86.83673095703125Q8688.567749023438 -76.56640625 8707.027099609375 -54.89093017578125Q8725.486450195312 -33.2154541015625 8736.648376464844 0.0L8532.134826660156 526.0H8641.406494140625L8742.811645507812 264.02777099609375Q8750.054870605469 246.05487060546875 8758.406158447266 219.20358276367188Q8766.757446289062 192.352294921875 8775.60873413086 164.12261962890625Q8784.460021972656 135.8929443359375 8790.189697265625 113.64971923828125H8795.432922363281Q8799.676147460938 129.13616943359375 8805.16259765625 148.74423217773438Q8810.649047851562 168.352294921875 8816.635498046875 189.08197021484375Q8822.621948242188 209.8116455078125 8828.865173339844 229.17648315429688Q8835.1083984375 248.54132080078125 8839.351623535156 263.02777099609375L8924.216125488281 526.0H9029.731018066406L8852.271667480469 20.43292236328125Q8837.271667480469 -22.05352783203125 8819.258117675781 -59.08062744140625Q8801.244567871094 -96.10772705078125 8777.839080810547 -123.64837646484375Q8754.43359375 -151.18902587890625 8722.392944335938 -166.59451293945312Q8690.352294921875 -182.0 8647.054870605469 -182.0ZM9398.918701171875 -182.0Q9362.702575683594 -182.0 9331.216125488281 -167.14871215820312Q9299.729675292969 -152.29742431640625 9280.729675292969 -123.94613647460938Q9261.729675292969 -95.5948486328125 9261.729675292969 -56.081298828125Q9261.729675292969 -12.081298828125 9286.5 15.364501953125Q9311.270324707031 42.810302734375 9344.216125488281 56.53997802734375Q9320.0 68.2967529296875 9305.743225097656 89.02642822265625Q9291.486450195312 109.756103515625 9291.486450195312 136.783203125Q9291.486450195312 173.56707763671875 9318.270324707031 196.7967529296875Q9345.05419921875 220.02642822265625 9381.297424316406 227.2696533203125Q9345.756774902344 250.02642822265625 9326.256774902344 285.1751403808594Q9306.756774902344 320.3238525390625 9306.756774902344 364.13482666015625Q9306.756774902344 416.70257568359375 9331.919036865234 455.472900390625Q9357.081298828125 494.24322509765625 9406.50033569336 516.1216125488281Q9455.919372558594 538.0 9527.189697265625 538.0Q9557.649047851562 538.0 9585.135498046875 533.6351623535156Q9612.621948242188 529.2703247070312 9634.865173339844 520.5406494140625Q9669.865173339844 538.6219482421875 9685.175811767578 564.3922729492188Q9700.486450195312 590.16259765625 9703.189025878906 612.027099609375H9805.406494140625Q9804.920043945312 579.4593505859375 9791.663269042969 552.8241882324219Q9778.406494140625 526.1890258789062 9754.77133178711 508.5674133300781Q9731.136169433594 490.94580078125 9697.622619628906 483.918701171875Q9722.865844726562 461.18902587890625 9735.622619628906 430.5538635253906Q9748.37939453125 399.918701171875 9748.37939453125 364.13482666015625Q9748.37939453125 311.810302734375 9723.973907470703 272.6615905761719Q9699.568420410156 233.51287841796875 9651.406158447266 211.51287841796875Q9603.243896484375 189.51287841796875 9531.730346679688 189.51287841796875H9450.000671386719Q9425.838745117188 189.51287841796875 9411.54165649414 179.66159057617188Q9397.244567871094 169.810302734375 9397.244567871094 149.918701171875Q9397.244567871094 133.27032470703125 9411.149719238281 122.17581176757812Q9425.054870605469 111.081298828125 9448.189697265625 111.081298828125H9669.676818847656Q9728.190368652344 111.081298828125 9765.960693359375 72.33807373046875Q9803.731018066406 33.5948486328125 9803.731018066406 -25.918701171875Q9803.731018066406 -69.94580078125 9781.203918457031 -105.33773803710938Q9758.676818847656 -140.72967529296875 9718.501007080078 -161.36483764648438Q9678.3251953125 -182.0 9625.000671386719 -182.0ZM9432.946472167969 -105.1883544921875H9623.757446289062Q9645.189697265625 -105.1883544921875 9662.00033569336 -96.98577880859375Q9678.810974121094 -88.783203125 9688.770324707031 -74.22933959960938Q9698.729675292969 -59.67547607421875 9698.729675292969 -42.0Q9698.729675292969 -11.6219482421875 9680.16226196289 5.02642822265625Q9661.594848632812 21.6748046875 9634.676147460938 21.6748046875H9432.946472167969Q9405.054870605469 21.6748046875 9385.892944335938 3.52642822265625Q9366.731018066406 -14.6219482421875 9366.731018066406 -42.0Q9366.731018066406 -70.3509521484375 9385.514556884766 -87.7696533203125Q9404.298095703125 -105.1883544921875 9432.946472167969 -105.1883544921875ZM9527.946472167969 265.05419921875Q9586.783874511719 265.05419921875 9615.83773803711 291.3783874511719Q9644.8916015625 317.70257568359375 9644.8916015625 364.13482666015625Q9644.8916015625 410.56707763671875 9615.83773803711 436.51287841796875Q9586.783874511719 462.45867919921875 9527.946472167969 462.45867919921875Q9469.352294921875 462.45867919921875 9440.176818847656 436.51287841796875Q9411.001342773438 410.56707763671875 9411.001342773438 364.13482666015625Q9411.001342773438 334.16192626953125 9423.717468261719 311.70257568359375Q9436.43359375 289.24322509765625 9462.48745727539 277.1487121582031Q9488.541320800781 265.05419921875 9527.946472167969 265.05419921875ZM10108.460021972656 -12.0Q10025.865173339844 -12.0 9969.567749023438 17.5Q9913.270324707031 47.0 9884.756774902344 108.0Q9856.243225097656 169.0 9856.243225097656 263.0Q9856.243225097656 358.0 9884.756774902344 418.5Q9913.270324707031 479.0 9969.567749023438 508.5Q10025.865173339844 538.0 10108.460021972656 538.0Q10192.054870605469 538.0 10247.852294921875 508.5Q10303.649719238281 479.0 10332.163269042969 418.5Q10360.676818847656 358.0 10360.676818847656 263.0Q10360.676818847656 169.0 10332.163269042969 108.0Q10303.649719238281 47.0 10247.852294921875 17.5Q10192.054870605469 -12.0 10108.460021972656 -12.0ZM10108.460021972656 74.13616943359375Q10158.16259765625 74.13616943359375 10190.094848632812 93.48745727539062Q10222.027099609375 112.8387451171875 10237.472900390625 152.89260864257812Q10252.918701171875 192.94647216796875 10252.918701171875 254.05419921875V271.94580078125Q10252.918701171875 333.2967529296875 10237.472900390625 373.22900390625Q10222.027099609375 413.1612548828125 10190.094848632812 432.5125427246094Q10158.16259765625 451.86383056640625 10108.460021972656 451.86383056640625Q10058.757446289062 451.86383056640625 10026.8251953125 432.5125427246094Q9994.892944335938 413.1612548828125 9979.447143554688 373.22900390625Q9964.001342773438 333.2967529296875 9964.001342773438 271.94580078125V254.05419921875Q9964.001342773438 192.94647216796875 9979.447143554688 152.89260864257812Q9994.892944335938 112.8387451171875 10026.8251953125 93.48745727539062Q10058.757446289062 74.13616943359375 10108.460021972656 74.13616943359375ZM10466.94580078125 616.72900390625V723.0H10570.947143554688V616.72900390625ZM10466.94580078125 0.0V526.0H10570.947143554688V0.0ZM10704.94580078125 0.0V526.0H10790.649719238281L10799.676818847656 451.37872314453125H10806.676818847656Q10826.136169433594 479.5135498046875 10851.852294921875 498.8648376464844Q10877.568420410156 518.2161254882812 10909.43325805664 528.1080627441406Q10941.298095703125 538.0 10978.811645507812 538.0Q11028.811645507812 538.0 11066.946807861328 520.6080627441406Q11105.081970214844 503.21612548828125 11126.71713256836 464.18902587890625Q11148.352294921875 425.16192626953125 11148.352294921875 359.3780517578125V0.0H11043.594177246094V342.72900390625Q11043.594177246094 373.1612548828125 11036.242889404297 392.9989929199219Q11028.8916015625 412.83673095703125 11015.175476074219 424.7015686035156Q11001.459350585938 436.56640625 10982.121612548828 441.56640625Q10962.783874511719 446.56640625 10939.567749023438 446.56640625Q10904.135498046875 446.56640625 10874.351959228516 429.35028076171875Q10844.568420410156 412.1341552734375 10826.757781982422 381.0938415527344Q10808.947143554688 350.05352783203125 10808.947143554688 307.70257568359375V0.0ZM11365.918701171875 -182.0Q11329.702575683594 -182.0 11298.216125488281 -167.14871215820312Q11266.729675292969 -152.29742431640625 11247.729675292969 -123.94613647460938Q11228.729675292969 -95.5948486328125 11228.729675292969 -56.081298828125Q11228.729675292969 -12.081298828125 11253.5 15.364501953125Q11278.270324707031 42.810302734375 11311.216125488281 56.53997802734375Q11287.0 68.2967529296875 11272.743225097656 89.02642822265625Q11258.486450195312 109.756103515625 11258.486450195312 136.783203125Q11258.486450195312 173.56707763671875 11285.270324707031 196.7967529296875Q11312.05419921875 220.02642822265625 11348.297424316406 227.2696533203125Q11312.756774902344 250.02642822265625 11293.256774902344 285.1751403808594Q11273.756774902344 320.3238525390625 11273.756774902344 364.13482666015625Q11273.756774902344 416.70257568359375 11298.919036865234 455.472900390625Q11324.081298828125 494.24322509765625 11373.50033569336 516.1216125488281Q11422.919372558594 538.0 11494.189697265625 538.0Q11524.649047851562 538.0 11552.135498046875 533.6351623535156Q11579.621948242188 529.2703247070312 11601.865173339844 520.5406494140625Q11636.865173339844 538.6219482421875 11652.175811767578 564.3922729492188Q11667.486450195312 590.16259765625 11670.189025878906 612.027099609375H11772.406494140625Q11771.920043945312 579.4593505859375 11758.663269042969 552.8241882324219Q11745.406494140625 526.1890258789062 11721.77133178711 508.5674133300781Q11698.136169433594 490.94580078125 11664.622619628906 483.918701171875Q11689.865844726562 461.18902587890625 11702.622619628906 430.5538635253906Q11715.37939453125 399.918701171875 11715.37939453125 364.13482666015625Q11715.37939453125 311.810302734375 11690.973907470703 272.6615905761719Q11666.568420410156 233.51287841796875 11618.406158447266 211.51287841796875Q11570.243896484375 189.51287841796875 11498.730346679688 189.51287841796875H11417.000671386719Q11392.838745117188 189.51287841796875 11378.54165649414 179.66159057617188Q11364.244567871094 169.810302734375 11364.244567871094 149.918701171875Q11364.244567871094 133.27032470703125 11378.149719238281 122.17581176757812Q11392.054870605469 111.081298828125 11415.189697265625 111.081298828125H11636.676818847656Q11695.190368652344 111.081298828125 11732.960693359375 72.33807373046875Q11770.731018066406 33.5948486328125 11770.731018066406 -25.918701171875Q11770.731018066406 -69.94580078125 11748.203918457031 -105.33773803710938Q11725.676818847656 -140.72967529296875 11685.501007080078 -161.36483764648438Q11645.3251953125 -182.0 11592.000671386719 -182.0ZM11399.946472167969 -105.1883544921875H11590.757446289062Q11612.189697265625 -105.1883544921875 11629.00033569336 -96.98577880859375Q11645.810974121094 -88.783203125 11655.770324707031 -74.22933959960938Q11665.729675292969 -59.67547607421875 11665.729675292969 -42.0Q11665.729675292969 -11.6219482421875 11647.16226196289 5.02642822265625Q11628.594848632812 21.6748046875 11601.676147460938 21.6748046875H11399.946472167969Q11372.054870605469 21.6748046875 11352.892944335938 3.52642822265625Q11333.731018066406 -14.6219482421875 11333.731018066406 -42.0Q11333.731018066406 -70.3509521484375 11352.514556884766 -87.7696533203125Q11371.298095703125 -105.1883544921875 11399.946472167969 -105.1883544921875ZM11494.946472167969 265.05419921875Q11553.783874511719 265.05419921875 11582.83773803711 291.3783874511719Q11611.8916015625 317.70257568359375 11611.8916015625 364.13482666015625Q11611.8916015625 410.56707763671875 11582.83773803711 436.51287841796875Q11553.783874511719 462.45867919921875 11494.946472167969 462.45867919921875Q11436.352294921875 462.45867919921875 11407.176818847656 436.51287841796875Q11378.001342773438 410.56707763671875 11378.001342773438 364.13482666015625Q11378.001342773438 334.16192626953125 11390.717468261719 311.70257568359375Q11403.43359375 289.24322509765625 11429.48745727539 277.1487121582031Q11455.541320800781 265.05419921875 11494.946472167969 265.05419921875ZM11871.702575683594 0.0V115.59552001953125H11983.37939453125V0.0Z" transform="translate(44 368) scale(0.029 -0.029)" fill="#b7c8cc"/>
</svg>
